<svg width="97" height="97" viewBox="0 0 97 97" fill="none" xmlns="http://www.w3.org/2000/svg">
<path d="M79.3784 36.9408C79.3932 31.8853 78.1665 26.9036 75.806 22.433C73.4456 17.9624 70.0235 14.1397 65.8405 11.3007C61.6574 8.46173 56.8413 6.69322 51.815 6.1505C46.7888 5.60778 41.7061 6.30746 37.0135 8.1881C32.3208 10.0687 28.1616 13.0728 24.9013 16.9365C21.6409 20.8001 19.3791 25.4052 18.3144 30.3473C17.2497 35.2894 17.4147 40.4173 18.7949 45.2808C20.1752 50.1442 22.7284 54.5943 26.2304 58.2404C30.6323 62.9067 33.077 69.0834 33.0609 75.4983H63.9392C63.8781 69.1263 66.2987 62.9805 70.6888 58.3616C76.2677 52.6276 79.3859 44.941 79.3784 36.9408Z" stroke="black" stroke-width="6" stroke-miterlimit="10"/>
<path d="M33.0609 75.4983H63.9392V83.2179C63.9392 85.2652 63.1259 87.2287 61.6782 88.6764C60.2305 90.1241 58.267 90.9375 56.2196 90.9375H40.7804C38.7331 90.9375 36.7696 90.1241 35.3219 88.6764C33.8742 87.2287 33.0609 85.2652 33.0609 83.2179V75.4983Z" stroke="black" stroke-width="6" stroke-miterlimit="10"/>
<path d="M2.2229 36.9408H9.90207" stroke="black" stroke-width="6" stroke-miterlimit="10"/>
<path d="M13.7821 6.0625H21.5017" stroke="black" stroke-width="6" stroke-miterlimit="10"/>
<path d="M13.7821 67.7788H21.5017" stroke="black" stroke-width="6" stroke-miterlimit="10"/>
<path d="M94.7771 36.9408H87.0979" stroke="black" stroke-width="6" stroke-miterlimit="10"/>
<path d="M83.2179 67.7788H75.4984" stroke="black" stroke-width="6" stroke-miterlimit="10"/>
<path d="M83.2179 6.0625H75.4984" stroke="black" stroke-width="6" stroke-miterlimit="10"/>
<path d="M48.4805 25.8744L55.5109 32.9048C58.6948 36.1036 60.4845 40.4317 60.4899 44.9449C60.4952 49.4582 58.7157 53.7904 55.5395 56.9968L48.5091 64.0272L41.5073 57.0254C38.3011 53.8192 36.4999 49.4707 36.4999 44.9365C36.4999 40.4023 38.3011 36.0538 41.5073 32.8476L48.4805 25.8744Z" stroke="black" stroke-width="6" stroke-miterlimit="10"/>
<path d="M48.5 74.9729V40.7804" stroke="black" stroke-width="6" stroke-miterlimit="10"/>
</svg>
