<svg width="95" height="79" viewBox="0 0 95 79" fill="none" xmlns="http://www.w3.org/2000/svg">
<path d="M67.7157 3.00004C63.7013 3.01602 59.7536 4.01587 56.2257 5.91011C52.6978 7.80435 49.6998 10.5339 47.5 13.8545C44.6183 9.57297 40.4227 6.31941 35.5308 4.5728C30.6389 2.82619 25.3091 2.67882 20.3261 4.15238C15.3431 5.62594 10.9702 8.64257 7.85113 12.7582C4.73202 16.8738 3.03154 21.871 3 27.014C3 63.014 47.5 75 47.5 75C47.5 75 92 63.014 92 27.014C92.0055 23.8589 91.3812 20.7337 90.1628 17.8177C88.9444 14.9017 87.1558 12.2523 84.8997 10.0213C82.6436 7.79025 79.9643 6.0216 77.0155 4.81675C74.0667 3.61189 70.9063 2.99452 67.7157 3.00004Z" stroke="black" stroke-width="6" stroke-miterlimit="10"/>
<path d="M67.7156 19.0094C68.7801 19.0038 69.8353 19.2071 70.8199 19.6074C71.8046 20.0077 72.6991 20.5971 73.4519 21.3415C74.2047 22.0859 74.8008 22.9706 75.2056 23.9442C75.6104 24.9179 75.8159 25.9613 75.8103 27.014C75.7503 30.4966 74.9884 33.9323 73.5694 37.1201C72.1504 40.308 70.1026 43.184 67.546 45.5798" stroke="black" stroke-width="6" stroke-miterlimit="10"/>
</svg>
