<svg width="14" height="27" viewBox="0 0 14 27" fill="none" xmlns="http://www.w3.org/2000/svg">
<path d="M11.0452 27C11.0452 27 13.5 27 13.5 24.5452V2.4548C13.5 0 11.0452 0 11.0452 0H2.4548C2.4548 0 0 0 0 2.4548V24.5452C0 27 2.4548 27 2.4548 27H11.0452ZM1.22602 2.4548C1.22602 1.86245 1.41061 1.58694 1.77429 1.4051C2.03327 1.27561 2.3198 1.22878 2.45204 1.22878H11.0424C11.1774 1.22878 11.4612 1.27561 11.7202 1.4051C12.0839 1.58694 12.2685 1.8652 12.2685 2.4548V3.06918H1.22602V2.4548ZM1.22602 4.2952H12.2712V20.8644H1.22602V4.2952ZM1.22602 24.5452V22.0904H12.2712V24.5452C12.2712 25.1376 12.0866 25.4131 11.723 25.5949C11.464 25.7244 11.1774 25.7712 11.0452 25.7712H2.4548C2.3198 25.7712 2.03602 25.7244 1.77704 25.5949C1.41061 25.4131 1.22602 25.1376 1.22602 24.5452Z" fill="white"/>
<path d="M8.42781 1.84033H5.0721C4.98118 1.84033 4.90955 1.9588 4.90955 2.11033V2.18196C4.90955 2.33074 4.98393 2.45196 5.0721 2.45196H8.42781C8.51873 2.45196 8.59036 2.3335 8.59036 2.18196V2.11033C8.59036 1.96156 8.51597 1.84033 8.42781 1.84033Z" fill="white"/>
<path d="M5.52405 23.9309C5.52405 24.6086 6.07231 25.1569 6.75007 25.1569C7.42782 25.1569 7.97609 24.6086 7.97609 23.9309C7.97609 23.2531 7.42782 22.7048 6.75007 22.7048C6.07231 22.7048 5.52405 23.2531 5.52405 23.9309Z" fill="white"/>
</svg>
