<svg width="20" height="20" viewBox="0 0 20 20" fill="none" xmlns="http://www.w3.org/2000/svg">
<path fill-rule="evenodd" clip-rule="evenodd" d="M3.77932 12.946C4.5451 12.1802 5.58371 11.75 6.66668 11.75H13.3333C14.4163 11.75 15.4549 12.1802 16.2207 12.946C16.9865 13.7118 17.4167 14.7504 17.4167 15.8333V17.5C17.4167 17.9142 17.0809 18.25 16.6667 18.25C16.2525 18.25 15.9167 17.9142 15.9167 17.5V15.8333C15.9167 15.1482 15.6445 14.4911 15.16 14.0066C14.6756 13.5222 14.0185 13.25 13.3333 13.25H6.66668C5.98153 13.25 5.32445 13.5222 4.83998 14.0066C4.35552 14.4911 4.08334 15.1482 4.08334 15.8333V17.5C4.08334 17.9142 3.74756 18.25 3.33334 18.25C2.91913 18.25 2.58334 17.9142 2.58334 17.5V15.8333C2.58334 14.7504 3.01355 13.7118 3.77932 12.946Z" fill="#555555"/>
<path fill-rule="evenodd" clip-rule="evenodd" d="M9.99999 3.25C8.57325 3.25 7.41666 4.4066 7.41666 5.83333C7.41666 7.26007 8.57325 8.41667 9.99999 8.41667C11.4267 8.41667 12.5833 7.26007 12.5833 5.83333C12.5833 4.4066 11.4267 3.25 9.99999 3.25ZM5.91666 5.83333C5.91666 3.57817 7.74483 1.75 9.99999 1.75C12.2552 1.75 14.0833 3.57817 14.0833 5.83333C14.0833 8.0885 12.2552 9.91667 9.99999 9.91667C7.74483 9.91667 5.91666 8.0885 5.91666 5.83333Z" fill="#555555"/>
</svg>
